<?xml version="1.0" encoding="iso-8859-1"?>
<!-- Generator: Adobe Illustrator 16.0.0, SVG Export Plug-In . SVG Version: 6.00 Build 0)  -->
<!DOCTYPE svg PUBLIC "-//W3C//DTD SVG 1.1//EN" "http://www.w3.org/Graphics/SVG/1.1/DTD/svg11.dtd">
<svg version="1.1" id="Capa_1" xmlns="http://www.w3.org/2000/svg" xmlns:xlink="http://www.w3.org/1999/xlink" x="0px" y="0px"
	 width="46px" height="46px" viewBox="0 0 46 46" style="enable-background:new 0 0 46 46;" xml:space="preserve">
<g>
	<g id="Sound">
		<g>
			<path d="M23,0C10.298,0,0,10.298,0,23s10.298,23,23,23s23-10.298,23-23S35.702,0,23,0z M23,42C12.507,42,4,33.493,4,23
				S12.507,4,23,4s19,8.507,19,19S33.493,42,23,42z M26.791,14.347l-4.662,4.835c-0.183-0.196-0.439-0.324-0.729-0.324H18
				c-1.104,0-2,0.896-2,2v3.285c0,1.104,0.896,2,2,2h3.4c0.29,0,0.546-0.127,0.729-0.324l4.662,4.836C27.125,31,27.666,31,28,30.652
				V14.347C27.666,14,27.125,14,26.791,14.347z"/>
		</g>
	</g>
</g>
<g>
</g>
<g>
</g>
<g>
</g>
<g>
</g>
<g>
</g>
<g>
</g>
<g>
</g>
<g>
</g>
<g>
</g>
<g>
</g>
<g>
</g>
<g>
</g>
<g>
</g>
<g>
</g>
<g>
</g>
</svg>
