<?xml version="1.0" encoding="iso-8859-1"?>
<!-- Generator: Adobe Illustrator 18.1.1, SVG Export Plug-In . SVG Version: 6.00 Build 0)  -->
<svg version="1.1" id="Capa_1" xmlns="http://www.w3.org/2000/svg" xmlns:xlink="http://www.w3.org/1999/xlink" x="0px" y="0px"
	 viewBox="0 0 27.963 27.963" style="enable-background:new 0 0 27.963 27.963;" xml:space="preserve">
<g>
	<g id="c146_music">
		<path d="M13.98,0C6.26,0,0,6.258,0,13.98c0,7.724,6.26,13.983,13.98,13.983c7.725,0,13.982-6.26,13.982-13.983
			C27.963,6.258,21.705,0,13.98,0z M13.98,26.532c-6.932,0-12.549-5.622-12.549-12.552c0-6.932,5.617-12.549,12.549-12.549
			c6.934,0,12.553,5.617,12.553,12.549C26.534,20.91,20.914,26.532,13.98,26.532z"/>
		<path d="M11.205,18.389c-0.479-0.17-1.045-0.195-1.627-0.054c-1.293,0.324-2.139,1.39-1.891,2.382
			c0.145,0.916,1.496,1.534,2.787,1.208c1.137-0.281,1.926-1.141,1.932-2.018h0.002l0.031-9.255l6.676-1.225v7.442
			c-0.484-0.171-1.066-0.203-1.656-0.056c-1.305,0.328-2.16,1.401-1.908,2.404c0.25,1.002,1.51,1.548,2.814,1.224
			c1.189-0.301,1.951-1.116,1.951-2.137V5.952l-9.111,1.479V18.389z"/>
	</g>
	<g id="Capa_1_63_">
	</g>
</g>
<g>
</g>
<g>
</g>
<g>
</g>
<g>
</g>
<g>
</g>
<g>
</g>
<g>
</g>
<g>
</g>
<g>
</g>
<g>
</g>
<g>
</g>
<g>
</g>
<g>
</g>
<g>
</g>
<g>
</g>
</svg>
