<?xml version="1.0" encoding="iso-8859-1"?>
<!-- Generator: Adobe Illustrator 18.1.1, SVG Export Plug-In . SVG Version: 6.00 Build 0)  -->
<svg version="1.1" id="Capa_1" xmlns="http://www.w3.org/2000/svg" xmlns:xlink="http://www.w3.org/1999/xlink" x="0px" y="0px"
	 viewBox="0 0 612.074 612.074" style="enable-background:new 0 0 612.074 612.074;" xml:space="preserve">
<g>
	<path d="M306.037,0C136.997,0,0,136.997,0,306.037s136.997,306.037,306.037,306.037s306.037-136.997,306.037-306.037
		S475.077,0,306.037,0z M306.037,582.405c-153.019,0-276.368-124.165-276.368-276.368S153.019,29.669,306.037,29.669
		s276.368,124.165,276.368,276.368S458.24,582.405,306.037,582.405z M426.197,276.368c5.637,5.637,5.637,15.205,0,20.843
		c-3.189,3.189-6.379,4.005-10.384,4.005c-4.005,0-7.195-1.632-10.384-4.005l-85.002-84.928v234.683
		c0,8.011-6.379,14.39-14.39,14.39c-8.011,0-14.39-6.379-14.39-14.39V212.283l-84.186,84.112c-5.637,5.637-15.205,5.637-20.843,0
		s-5.637-15.205,0-20.843l108.96-108.886c0.816-0.816,1.632-1.632,2.374-1.632l0.816-0.816c0.816,0,0.816-0.816,1.632-0.816
		c0.816,0,0.816,0,1.632-0.816c0.816,0,0.816,0,1.632,0c1.632,0,4.005,0,5.637,0c0.816,0,0.816,0,1.632,0s0.816,0,1.632,0.816
		c0.816,0,0.816,0.816,1.632,0.816c0,0,0.816,0,0.816,0.816c0.816,0.816,1.632,0.816,2.374,1.632L426.197,276.368z"/>
</g>
<g>
</g>
<g>
</g>
<g>
</g>
<g>
</g>
<g>
</g>
<g>
</g>
<g>
</g>
<g>
</g>
<g>
</g>
<g>
</g>
<g>
</g>
<g>
</g>
<g>
</g>
<g>
</g>
<g>
</g>
</svg>
